<svg width="71" height="44" viewBox="0 0 71 44" fill="none" xmlns="http://www.w3.org/2000/svg">
<g filter="url(#filter0_d_1103_19656)">
<path d="M44.7501 28.5C45.9048 30.5 48.7916 30.5 49.9463 28.5L60.3386 10.5C61.4933 8.5 60.0499 6 57.7405 6H36.9559C34.6465 6 33.2031 8.5 34.3578 10.5L44.7501 28.5Z" fill="#E1BAC8"/>
<path d="M36.8302 28.5C37.9849 30.5 40.8717 30.5 42.0264 28.5L52.4187 10.5C53.5734 8.5 52.13 6 49.8206 6H29.036C26.7266 6 25.2832 8.5 26.4379 10.5L36.8302 28.5Z" fill="#CD99AA"/>
<path d="M28.9103 28.5C30.065 30.5 32.9518 30.5 34.1065 28.5L44.4988 10.5C45.6535 8.5 44.2101 6 41.9007 6H21.1161C18.8067 6 17.3633 8.5 18.518 10.5L28.9103 28.5Z" fill="#BF6E8A"/>
<path d="M20.9904 28.5C22.1451 30.5 25.0318 30.5 26.1865 28.5L36.5788 10.5C37.7335 8.5 36.2902 6 33.9808 6H13.1961C10.8867 6 9.44338 8.5 10.5981 10.5L20.9904 28.5Z" fill="#A25670"/>
</g>
<defs>
<filter id="filter0_d_1103_19656" x="0.191895" y="0" width="70.5532" height="44" filterUnits="userSpaceOnUse" color-interpolation-filters="sRGB">
<feFlood flood-opacity="0" result="BackgroundImageFix"/>
<feColorMatrix in="SourceAlpha" type="matrix" values="0 0 0 0 0 0 0 0 0 0 0 0 0 0 0 0 0 0 127 0" result="hardAlpha"/>
<feOffset dy="4"/>
<feGaussianBlur stdDeviation="5"/>
<feComposite in2="hardAlpha" operator="out"/>
<feColorMatrix type="matrix" values="0 0 0 0 0 0 0 0 0 0 0 0 0 0 0 0 0 0 0.1 0"/>
<feBlend mode="normal" in2="BackgroundImageFix" result="effect1_dropShadow_1103_19656"/>
<feBlend mode="normal" in="SourceGraphic" in2="effect1_dropShadow_1103_19656" result="shape"/>
</filter>
</defs>
</svg>
